<svg width="32" height="33" viewBox="0 0 32 33" fill="none" xmlns="http://www.w3.org/2000/svg">
<path d="M10.6565 25.3621C10.6151 25.5281 10.5114 25.611 10.3454 25.611C10.0965 25.611 9.97209 25.5281 9.97209 25.3621C10.0136 25.2377 10.1173 25.1755 10.2832 25.1755C10.4906 25.1755 10.6151 25.2377 10.6565 25.3621ZM8.71876 25.1132C8.67728 25.2377 8.76172 25.3414 8.97209 25.4244C9.1795 25.4658 9.30394 25.4244 9.34543 25.2999C9.38691 25.134 9.30394 25.0288 9.09654 24.9844C8.88913 24.9429 8.7632 24.9858 8.71876 25.1132ZM11.4699 24.9844C11.2625 25.0288 11.1588 25.134 11.1588 25.2999C11.2002 25.4244 11.3247 25.4866 11.5321 25.4866C11.7425 25.4036 11.8476 25.2999 11.8476 25.1755C11.8062 25.0481 11.6802 24.9844 11.4699 24.9844ZM15.5943 1.05103C11.138 1.13399 7.49209 2.59177 4.65654 5.42436C1.82394 8.25695 0.366166 11.8821 0.283203 16.2999C0.324685 19.8407 1.30394 22.9444 3.22098 25.611C5.13802 28.2777 7.70098 30.1532 10.9099 31.2377C11.6595 31.2792 12.0136 31.0288 11.9721 30.4866C11.9721 30.3207 11.9721 30.0081 11.9721 29.5488C11.9721 28.5918 11.9721 27.6332 11.9721 26.6732C11.8891 26.6732 11.4936 26.7147 10.7854 26.7977C10.0328 26.8392 9.24024 26.7562 8.40765 26.5488C7.57506 26.2999 6.99135 25.7162 6.65654 24.7977C6.65654 24.7147 6.49061 24.3814 6.15876 23.7977C5.82394 23.2555 5.40765 22.8184 4.90987 22.4866C4.82691 22.4451 4.6595 22.2777 4.40765 21.9844C4.11728 21.7355 4.32617 21.5903 5.03431 21.5488C5.0758 21.5073 5.36765 21.5903 5.90987 21.7977C6.44913 21.9666 6.94839 22.4258 7.40765 23.1755C8.15728 24.2984 8.97061 24.8599 9.84765 24.8599C10.7632 24.8599 11.4714 24.7355 11.9721 24.4866C12.138 23.4851 12.4714 22.777 12.9721 22.3621C11.138 22.2792 9.53357 21.8199 8.15876 20.9844C6.78394 20.1932 6.05506 18.3399 5.97209 15.4244C5.97209 14.5918 6.09654 13.9044 6.34543 13.3621C6.55283 12.8199 6.90691 12.2984 7.40765 11.7977C7.32469 11.5488 7.24172 11.0495 7.15876 10.2999C7.0758 9.55029 7.22098 8.63325 7.59431 7.5488C8.34394 7.42436 9.2195 7.65399 10.221 8.23769C11.2639 8.77991 11.8269 9.11325 11.9099 9.23769C13.1602 8.8614 14.4728 8.67325 15.8476 8.67325C17.181 8.67325 18.4936 8.8614 19.7854 9.23769C19.7854 9.19621 20.0551 9.00806 20.5943 8.67325C21.0951 8.3414 21.6788 8.04954 22.3454 7.79769C23.0121 7.50732 23.5958 7.42436 24.0965 7.5488C24.4699 8.63325 24.6151 9.55029 24.5321 10.2999C24.4491 11.0495 24.3454 11.5488 24.221 11.7977C24.7217 12.2984 25.1173 12.8199 25.4076 13.3621C25.701 13.9044 25.8476 14.5918 25.8476 15.4244C25.8062 17.4244 25.4521 18.9029 24.7854 19.8599C24.0743 20.7784 23.178 21.4036 22.0965 21.7355C21.0121 22.0703 19.8654 22.2792 18.6565 22.3621C19.3232 22.8214 19.6773 23.7799 19.7188 25.2377C19.7188 26.7784 19.7188 28.1532 19.7188 29.3621C19.7188 29.9044 19.7188 30.2792 19.7188 30.4866C19.6773 31.0288 20.0328 31.2792 20.7854 31.2377C23.9499 30.1532 26.4906 28.2777 28.4076 25.611C30.2832 22.9444 31.2417 19.8407 31.2832 16.2999C31.2417 13.3814 30.5336 10.777 29.1588 8.48658C27.7425 6.19621 25.8669 4.38436 23.5321 3.05103C21.1588 1.75917 18.5128 1.09251 15.5943 1.05103ZM6.34543 22.611C6.26246 22.694 6.2832 22.7977 6.40765 22.9221C6.53209 23.0495 6.6358 23.0703 6.71876 22.9844C6.80468 22.9014 6.78394 22.7977 6.65654 22.6732C6.57357 22.5488 6.46987 22.5281 6.34543 22.611ZM5.65654 22.1132C5.65654 22.1962 5.72024 22.2792 5.84765 22.3621C5.97209 22.4036 6.05506 22.3829 6.09654 22.2999C6.13802 22.2169 6.09654 22.134 5.97209 22.051C5.84765 22.0066 5.74246 22.0273 5.65654 22.1132ZM7.71876 24.2999C7.6358 24.4244 7.65802 24.5695 7.78543 24.7355C7.95135 24.8599 8.09654 24.8807 8.22098 24.7977C8.26246 24.6732 8.22098 24.5281 8.09654 24.3621C7.93061 24.2377 7.80468 24.2169 7.71876 24.2999ZM6.97209 23.4244C6.88913 23.5073 6.88913 23.6318 6.97209 23.7977C7.09654 23.9221 7.22098 23.9636 7.34543 23.9221C7.42839 23.8392 7.42839 23.7147 7.34543 23.5488C7.22098 23.3829 7.09654 23.3414 6.97209 23.4244Z" fill="#00FFFF"/>
</svg>
       