<svg width="29" height="33" viewBox="0 0 29 33" fill="none" xmlns="http://www.w3.org/2000/svg">
<path d="M26.4863 2.54883H2.48633C1.90262 2.54883 1.42411 2.73698 1.05077 3.11327C0.674476 3.52809 0.486328 4.00661 0.486328 4.54883V28.5488C0.486328 29.0911 0.674476 29.5696 1.05077 29.9844C1.42411 30.3607 1.90262 30.5488 2.48633 30.5488H26.4863C27.07 30.5488 27.5485 30.3607 27.9219 29.9844C28.2982 29.5696 28.4863 29.0911 28.4863 28.5488V4.54883C28.4863 4.00661 28.2982 3.52809 27.9219 3.11327C27.5485 2.73698 27.07 2.54883 26.4863 2.54883ZM8.98855 26.5488H8.92188H4.79744V13.1755H8.98855V26.5488ZM6.85966 11.3622C6.193 11.3622 5.63151 11.1325 5.17522 10.6733C4.71596 10.214 4.48633 9.65105 4.48633 8.98438C4.48633 8.27624 4.71596 7.69401 5.17522 7.23772C5.63151 6.77846 6.193 6.54883 6.85966 6.54883C7.56781 6.54883 8.13077 6.77846 8.54855 7.23772C9.00781 7.69401 9.25818 8.27624 9.29966 8.98438C9.25818 9.65105 9.00781 10.214 8.54855 10.6733C8.13077 11.1325 7.56781 11.3622 6.85966 11.3622ZM24.4863 26.5488H20.3619V20.0511C20.4034 19.2155 20.2997 18.4229 20.0508 17.6733C19.8404 16.9651 19.2152 16.5696 18.1752 16.4866C17.1323 16.5281 16.4448 16.8822 16.113 17.5488C15.8197 18.2155 15.6937 19.0066 15.7352 19.9222V26.5488H11.5486V13.1755H15.5486V14.9844H15.6108C15.8626 14.4451 16.3219 13.9666 16.9886 13.5488C17.6552 13.0896 18.5086 12.8599 19.5485 12.8599C21.59 12.9014 22.9441 13.5059 23.6108 14.6733C24.2774 15.8822 24.5693 17.4036 24.4863 19.2377V26.5488Z" fill="#00FFFF"/>
</svg>
