<svg width="35" height="25" viewBox="0 0 35 25" fill="none" xmlns="http://www.w3.org/2000/svg">
<path d="M34.0625 4.29994C33.5647 2.75624 32.544 1.73549 31.0003 1.23772C30.0018 1.02735 28.461 0.859939 26.3781 0.735495C24.2951 0.652532 22.3573 0.59031 20.5647 0.548828C18.7721 0.548828 17.8136 0.548828 17.6892 0.548828C17.5647 0.548828 16.6062 0.548828 14.8136 0.548828C13.021 0.59031 11.0832 0.652532 9.00029 0.735495C6.91732 0.859939 5.37658 1.02735 4.37806 1.23772C2.83436 1.73549 1.81362 2.75624 1.31584 4.29994C1.10547 5.25698 0.938064 6.36068 0.81362 7.61105C0.730657 8.9029 0.668435 10.0496 0.626953 11.0511C0.626953 12.0081 0.626953 12.5073 0.626953 12.5488C0.626953 12.6318 0.626953 13.1533 0.626953 14.1133C0.668435 15.1118 0.730657 16.2362 0.81362 17.4866C0.938064 18.7785 1.10547 19.9029 1.31584 20.8599C1.81362 22.4036 2.83436 23.4036 4.37806 23.8599C5.37658 24.0703 6.91732 24.2377 9.00029 24.3622C11.0832 24.4451 13.021 24.5073 14.8136 24.5488C16.6062 24.5488 17.5647 24.5488 17.6892 24.5488C17.8136 24.5488 18.7721 24.5488 20.5647 24.5488C22.3573 24.5073 24.2951 24.4451 26.3781 24.3622C28.461 24.2377 30.0018 24.0703 31.0003 23.8599C32.544 23.4036 33.5647 22.4036 34.0625 20.8599C34.2729 19.9029 34.4403 18.7785 34.5647 17.4866C34.6477 16.2362 34.7099 15.1118 34.7514 14.1133C34.7514 13.1533 34.7514 12.6318 34.7514 12.5488C34.7514 12.5073 34.7514 12.0081 34.7514 11.0511C34.7099 10.0496 34.6477 8.9029 34.5647 7.61105C34.4403 6.36068 34.2729 5.25698 34.0625 4.29994ZM14.1914 17.6733V7.48661L23.1247 12.5488L14.1914 17.6733Z" fill="#00FFFF"/>
</svg>
